<svg xmlns="http://www.w3.org/2000/svg" xmlns:xlink="http://www.w3.org/1999/xlink" width="64" zoomAndPan="magnify" viewBox="0 0 48 48" height="64" preserveAspectRatio="xMidYMid meet" version="1.0"><defs><clipPath id="7df79dbc0e"><path d="M 3 1.6875 L 44.398438 1.6875 L 44.398438 23.449219 L 3 23.449219 Z M 3 1.6875 " clip-rule="nonzero"/></clipPath><clipPath id="4ea33989dc"><path d="M 2.027344 4.628906 L 2.027344 42.394531 C 2.027344 44.421875 3.671875 46.066406 5.699219 46.066406 L 42.300781 46.066406 C 44.328125 46.066406 45.972656 44.421875 45.972656 42.394531 L 45.972656 4.628906 C 45.972656 2.597656 44.328125 0.953125 42.300781 0.953125 L 5.699219 0.953125 C 3.671875 0.953125 2.027344 2.597656 2.027344 4.628906 Z M 2.027344 4.628906 " clip-rule="nonzero"/></clipPath><clipPath id="7f8bddce97"><path d="M 6.582031 1.835938 L 41.417969 1.835938 C 43.445312 1.835938 45.089844 3.480469 45.089844 5.507812 L 45.089844 41.511719 C 45.089844 43.539062 43.445312 45.183594 41.417969 45.183594 L 6.582031 45.183594 C 4.554688 45.183594 2.910156 43.539062 2.910156 41.511719 L 2.910156 5.507812 C 2.910156 3.480469 4.554688 1.835938 6.582031 1.835938 Z M 6.582031 1.835938 " clip-rule="nonzero"/></clipPath><clipPath id="2b2ed449bf"><path d="M 2.910156 1.6875 L 44.398438 1.6875 L 44.398438 23.449219 L 2.910156 23.449219 Z M 2.910156 1.6875 " clip-rule="nonzero"/></clipPath><clipPath id="cd7c585905"><path d="M 2.027344 4.628906 L 2.027344 42.394531 C 2.027344 44.421875 3.671875 46.066406 5.699219 46.066406 L 42.300781 46.066406 C 44.328125 46.066406 45.972656 44.421875 45.972656 42.394531 L 45.972656 4.628906 C 45.972656 2.597656 44.328125 0.953125 42.300781 0.953125 L 5.699219 0.953125 C 3.671875 0.953125 2.027344 2.597656 2.027344 4.628906 Z M 2.027344 4.628906 " clip-rule="nonzero"/></clipPath><clipPath id="c82879bd32"><path d="M 6.582031 1.835938 L 41.417969 1.835938 C 43.445312 1.835938 45.089844 3.480469 45.089844 5.507812 L 45.089844 41.511719 C 45.089844 43.539062 43.445312 45.183594 41.417969 45.183594 L 6.582031 45.183594 C 4.554688 45.183594 2.910156 43.539062 2.910156 41.511719 L 2.910156 5.507812 C 2.910156 3.480469 4.554688 1.835938 6.582031 1.835938 Z M 6.582031 1.835938 " clip-rule="nonzero"/></clipPath><clipPath id="3276d2489e"><path d="M 2.761719 23 L 45.375 23 L 45.375 45.769531 L 2.761719 45.769531 Z M 2.761719 23 " clip-rule="nonzero"/></clipPath><clipPath id="e0842a305c"><path d="M 2.027344 4.628906 L 2.027344 42.394531 C 2.027344 44.421875 3.671875 46.066406 5.699219 46.066406 L 42.300781 46.066406 C 44.328125 46.066406 45.972656 44.421875 45.972656 42.394531 L 45.972656 4.628906 C 45.972656 2.597656 44.328125 0.953125 42.300781 0.953125 L 5.699219 0.953125 C 3.671875 0.953125 2.027344 2.597656 2.027344 4.628906 Z M 2.027344 4.628906 " clip-rule="nonzero"/></clipPath><clipPath id="77a39bf84c"><path d="M 6.582031 1.835938 L 41.417969 1.835938 C 43.445312 1.835938 45.089844 3.480469 45.089844 5.507812 L 45.089844 41.511719 C 45.089844 43.539062 43.445312 45.183594 41.417969 45.183594 L 6.582031 45.183594 C 4.554688 45.183594 2.910156 43.539062 2.910156 41.511719 L 2.910156 5.507812 C 2.910156 3.480469 4.554688 1.835938 6.582031 1.835938 Z M 6.582031 1.835938 " clip-rule="nonzero"/></clipPath><clipPath id="a05c9e447f"><path d="M 2.761719 22.90625 L 45.375 22.90625 L 45.375 45.769531 L 2.761719 45.769531 Z M 2.761719 22.90625 " clip-rule="nonzero"/></clipPath><clipPath id="bcaba8f80e"><path d="M 2.027344 4.628906 L 2.027344 42.394531 C 2.027344 44.421875 3.671875 46.066406 5.699219 46.066406 L 42.300781 46.066406 C 44.328125 46.066406 45.972656 44.421875 45.972656 42.394531 L 45.972656 4.628906 C 45.972656 2.597656 44.328125 0.953125 42.300781 0.953125 L 5.699219 0.953125 C 3.671875 0.953125 2.027344 2.597656 2.027344 4.628906 Z M 2.027344 4.628906 " clip-rule="nonzero"/></clipPath><clipPath id="5f9521af7c"><path d="M 6.582031 1.835938 L 41.417969 1.835938 C 43.445312 1.835938 45.089844 3.480469 45.089844 5.507812 L 45.089844 41.511719 C 45.089844 43.539062 43.445312 45.183594 41.417969 45.183594 L 6.582031 45.183594 C 4.554688 45.183594 2.910156 43.539062 2.910156 41.511719 L 2.910156 5.507812 C 2.910156 3.480469 4.554688 1.835938 6.582031 1.835938 Z M 6.582031 1.835938 " clip-rule="nonzero"/></clipPath><clipPath id="d935dde4be"><path d="M 9.925781 14.859375 L 37.742188 14.859375 L 37.742188 37 L 9.925781 37 Z M 9.925781 14.859375 " clip-rule="nonzero"/></clipPath><clipPath id="1179abb6ed"><path d="M 2.027344 4.628906 L 2.027344 42.394531 C 2.027344 44.421875 3.671875 46.066406 5.699219 46.066406 L 42.300781 46.066406 C 44.328125 46.066406 45.972656 44.421875 45.972656 42.394531 L 45.972656 4.628906 C 45.972656 2.597656 44.328125 0.953125 42.300781 0.953125 L 5.699219 0.953125 C 3.671875 0.953125 2.027344 2.597656 2.027344 4.628906 Z M 2.027344 4.628906 " clip-rule="nonzero"/></clipPath><clipPath id="796f7eeba4"><path d="M 6.582031 1.835938 L 41.417969 1.835938 C 43.445312 1.835938 45.089844 3.480469 45.089844 5.507812 L 45.089844 41.511719 C 45.089844 43.539062 43.445312 45.183594 41.417969 45.183594 L 6.582031 45.183594 C 4.554688 45.183594 2.910156 43.539062 2.910156 41.511719 L 2.910156 5.507812 C 2.910156 3.480469 4.554688 1.835938 6.582031 1.835938 Z M 6.582031 1.835938 " clip-rule="nonzero"/></clipPath><clipPath id="bc2ab76849"><path d="M 9.21875 17.414062 L 9.21875 34.367188 C 9.21875 36.140625 10.671875 37.578125 12.460938 37.578125 L 34.996094 37.578125 C 36.789062 37.578125 38.238281 36.140625 38.238281 34.367188 L 38.238281 17.414062 C 38.238281 15.636719 36.789062 14.203125 34.996094 14.203125 L 12.460938 14.203125 C 10.671875 14.203125 9.21875 15.636719 9.21875 17.414062 Z M 9.21875 17.414062 " clip-rule="nonzero"/></clipPath><clipPath id="7a2583b588"><path d="M 13.238281 14.972656 L 34.21875 14.972656 C 36.011719 14.972656 37.460938 16.410156 37.460938 18.183594 L 37.460938 33.597656 C 37.460938 35.371094 36.011719 36.808594 34.21875 36.808594 L 13.238281 36.808594 C 11.449219 36.808594 9.996094 35.371094 9.996094 33.597656 L 9.996094 18.183594 C 9.996094 16.410156 11.449219 14.972656 13.238281 14.972656 Z M 13.238281 14.972656 " clip-rule="nonzero"/></clipPath><clipPath id="a225145944"><path d="M 9.21875 14.203125 L 38.390625 14.203125 L 38.390625 37.320312 L 9.21875 37.320312 Z M 9.21875 14.203125 " clip-rule="nonzero"/></clipPath><clipPath id="dd0cb0fe8c"><path d="M 2.027344 4.628906 L 2.027344 42.394531 C 2.027344 44.421875 3.671875 46.066406 5.699219 46.066406 L 42.300781 46.066406 C 44.328125 46.066406 45.972656 44.421875 45.972656 42.394531 L 45.972656 4.628906 C 45.972656 2.597656 44.328125 0.953125 42.300781 0.953125 L 5.699219 0.953125 C 3.671875 0.953125 2.027344 2.597656 2.027344 4.628906 Z M 2.027344 4.628906 " clip-rule="nonzero"/></clipPath><clipPath id="ebfb14c4d9"><path d="M 6.582031 1.835938 L 41.417969 1.835938 C 43.445312 1.835938 45.089844 3.480469 45.089844 5.507812 L 45.089844 41.511719 C 45.089844 43.539062 43.445312 45.183594 41.417969 45.183594 L 6.582031 45.183594 C 4.554688 45.183594 2.910156 43.539062 2.910156 41.511719 L 2.910156 5.507812 C 2.910156 3.480469 4.554688 1.835938 6.582031 1.835938 Z M 6.582031 1.835938 " clip-rule="nonzero"/></clipPath><clipPath id="aee6e33e5e"><path d="M 9.21875 17.414062 L 9.21875 34.367188 C 9.21875 36.140625 10.671875 37.578125 12.460938 37.578125 L 34.996094 37.578125 C 36.789062 37.578125 38.238281 36.140625 38.238281 34.367188 L 38.238281 17.414062 C 38.238281 15.636719 36.789062 14.203125 34.996094 14.203125 L 12.460938 14.203125 C 10.671875 14.203125 9.21875 15.636719 9.21875 17.414062 Z M 9.21875 17.414062 " clip-rule="nonzero"/></clipPath><clipPath id="ed377ad326"><path d="M 9.21875 17.410156 L 9.21875 34.363281 C 9.21875 36.136719 10.671875 37.574219 12.460938 37.574219 L 34.996094 37.574219 C 36.785156 37.574219 38.238281 36.136719 38.238281 34.363281 L 38.238281 17.410156 C 38.238281 15.636719 36.785156 14.203125 34.996094 14.203125 L 12.460938 14.203125 C 10.671875 14.203125 9.21875 15.636719 9.21875 17.410156 Z M 9.21875 17.410156 " clip-rule="nonzero"/></clipPath><clipPath id="c5086aa44f"><path d="M 2.027344 0.953125 L 46 0.953125 L 46 45.769531 L 2.027344 45.769531 Z M 2.027344 0.953125 " clip-rule="nonzero"/></clipPath><clipPath id="af3759aa58"><path d="M 2.027344 4.628906 L 2.027344 42.394531 C 2.027344 44.421875 3.671875 46.066406 5.699219 46.066406 L 42.300781 46.066406 C 44.328125 46.066406 45.972656 44.421875 45.972656 42.394531 L 45.972656 4.628906 C 45.972656 2.597656 44.328125 0.953125 42.300781 0.953125 L 5.699219 0.953125 C 3.671875 0.953125 2.027344 2.597656 2.027344 4.628906 Z M 2.027344 4.628906 " clip-rule="nonzero"/></clipPath><clipPath id="e83045b633"><path d="M 2.027344 4.625 L 2.027344 42.382812 C 2.027344 44.414062 3.671875 46.058594 5.699219 46.058594 L 42.296875 46.058594 C 44.328125 46.058594 45.972656 44.414062 45.972656 42.382812 L 45.972656 4.625 C 45.972656 2.597656 44.328125 0.953125 42.296875 0.953125 L 5.699219 0.953125 C 3.671875 0.953125 2.027344 2.597656 2.027344 4.625 Z M 2.027344 4.625 " clip-rule="nonzero"/></clipPath></defs><g clip-path="url(#7df79dbc0e)"><g clip-path="url(#4ea33989dc)"><g clip-path="url(#7f8bddce97)"><path fill="#ffffff" d="M 3.078125 1.121094 L 44.234375 1.121094 L 44.234375 23.269531 L 3.078125 23.269531 Z M 3.078125 1.121094 " fill-opacity="1" fill-rule="nonzero"/></g></g></g><g clip-path="url(#2b2ed449bf)"><g clip-path="url(#cd7c585905)"><g clip-path="url(#c82879bd32)"><path fill="#ffffff" d="M 44.234375 23.417969 L 3.078125 23.417969 C 2.992188 23.417969 2.925781 23.355469 2.925781 23.269531 L 2.925781 1.121094 C 2.925781 1.035156 2.992188 0.972656 3.078125 0.972656 L 44.234375 0.972656 C 44.316406 0.972656 44.382812 1.035156 44.382812 1.121094 L 44.382812 23.269531 C 44.382812 23.355469 44.316406 23.417969 44.234375 23.417969 Z M 3.230469 23.121094 L 44.078125 23.121094 L 44.078125 1.269531 L 3.230469 1.269531 Z M 3.230469 23.121094 " fill-opacity="1" fill-rule="nonzero"/></g></g></g><g clip-path="url(#3276d2489e)"><g clip-path="url(#e0842a305c)"><g clip-path="url(#77a39bf84c)"><path fill="#165ddd" d="M 2.195312 23.0625 L 45.101562 23.0625 L 45.101562 46.152344 L 2.195312 46.152344 Z M 2.195312 23.0625 " fill-opacity="1" fill-rule="nonzero"/></g></g></g><g clip-path="url(#a05c9e447f)"><g clip-path="url(#bcaba8f80e)"><g clip-path="url(#5f9521af7c)"><path fill="#165ddd" d="M 45.101562 46.308594 L 2.195312 46.308594 C 2.113281 46.308594 2.042969 46.242188 2.042969 46.152344 L 2.042969 23.0625 C 2.042969 22.976562 2.113281 22.90625 2.195312 22.90625 L 45.101562 22.90625 C 45.1875 22.90625 45.257812 22.976562 45.257812 23.0625 L 45.257812 46.152344 C 45.257812 46.242188 45.1875 46.308594 45.101562 46.308594 Z M 2.355469 45.996094 L 44.941406 45.996094 L 44.941406 23.21875 L 2.355469 23.21875 Z M 2.355469 45.996094 " fill-opacity="1" fill-rule="nonzero"/></g></g></g><g clip-path="url(#d935dde4be)"><g clip-path="url(#1179abb6ed)"><g clip-path="url(#796f7eeba4)"><g clip-path="url(#bc2ab76849)"><g clip-path="url(#7a2583b588)"><path fill="#ffffff" d="M 16.730469 3.15625 L 30.589844 3.15625 C 31.117188 3.15625 31.640625 3.183594 32.160156 3.234375 C 32.679688 3.285156 33.203125 3.359375 33.714844 3.460938 C 34.230469 3.5625 34.742188 3.6875 35.242188 3.839844 C 35.746094 3.988281 36.238281 4.167969 36.726562 4.363281 C 37.207031 4.5625 37.679688 4.785156 38.144531 5.03125 C 38.609375 5.277344 39.058594 5.546875 39.492188 5.832031 C 39.933594 6.121094 40.351562 6.429688 40.757812 6.761719 C 41.164062 7.089844 41.554688 7.4375 41.921875 7.804688 C 42.292969 8.175781 42.644531 8.558594 42.980469 8.960938 C 43.3125 9.363281 43.625 9.78125 43.917969 10.214844 C 44.210938 10.648438 44.476562 11.09375 44.726562 11.550781 C 44.972656 12.007812 45.195312 12.476562 45.398438 12.960938 C 45.601562 13.4375 45.773438 13.925781 45.929688 14.425781 C 46.078125 14.925781 46.207031 15.429688 46.308594 15.9375 C 46.414062 16.445312 46.488281 16.960938 46.539062 17.476562 C 46.589844 17.996094 46.617188 18.515625 46.617188 19.035156 L 46.617188 32.765625 C 46.617188 33.285156 46.589844 33.804688 46.539062 34.324219 C 46.488281 34.839844 46.414062 35.351562 46.308594 35.867188 C 46.207031 36.375 46.078125 36.878906 45.929688 37.375 C 45.773438 37.871094 45.601562 38.359375 45.398438 38.84375 C 45.195312 39.324219 44.972656 39.792969 44.726562 40.25 C 44.476562 40.710938 44.210938 41.15625 43.917969 41.589844 C 43.625 42.019531 43.3125 42.4375 42.980469 42.839844 C 42.644531 43.242188 42.292969 43.625 41.921875 43.992188 C 41.554688 44.363281 41.164062 44.714844 40.757812 45.042969 C 40.351562 45.371094 39.933594 45.679688 39.492188 45.96875 C 39.058594 46.257812 38.609375 46.527344 38.144531 46.769531 C 37.679688 47.015625 37.207031 47.238281 36.726562 47.4375 C 36.238281 47.636719 35.746094 47.8125 35.242188 47.960938 C 34.742188 48.109375 34.230469 48.242188 33.714844 48.34375 C 33.203125 48.441406 32.679688 48.519531 32.160156 48.570312 C 31.640625 48.621094 31.117188 48.644531 30.589844 48.644531 L 16.730469 48.644531 C 16.207031 48.644531 15.679688 48.621094 15.160156 48.570312 C 14.636719 48.519531 14.117188 48.441406 13.605469 48.34375 C 13.089844 48.242188 12.582031 48.109375 12.078125 47.960938 C 11.574219 47.8125 11.082031 47.636719 10.597656 47.4375 C 10.113281 47.238281 9.636719 47.015625 9.175781 46.769531 C 8.710938 46.527344 8.261719 46.257812 7.828125 45.96875 C 7.390625 45.679688 6.96875 45.371094 6.5625 45.042969 C 6.160156 44.714844 5.769531 44.363281 5.398438 43.992188 C 5.027344 43.625 4.675781 43.242188 4.34375 42.839844 C 4.007812 42.4375 3.695312 42.019531 3.402344 41.589844 C 3.113281 41.15625 2.839844 40.710938 2.59375 40.25 C 2.347656 39.792969 2.125 39.324219 1.921875 38.84375 C 1.722656 38.359375 1.546875 37.871094 1.390625 37.375 C 1.242188 36.878906 1.113281 36.375 1.011719 35.867188 C 0.910156 35.351562 0.828125 34.839844 0.777344 34.324219 C 0.726562 33.804688 0.703125 33.285156 0.703125 32.765625 L 0.703125 19.035156 C 0.703125 18.515625 0.726562 17.996094 0.777344 17.476562 C 0.828125 16.960938 0.910156 16.445312 1.011719 15.9375 C 1.113281 15.429688 1.242188 14.925781 1.390625 14.425781 C 1.546875 13.925781 1.722656 13.4375 1.921875 12.960938 C 2.125 12.476562 2.347656 12.007812 2.59375 11.550781 C 2.839844 11.09375 3.113281 10.648438 3.402344 10.214844 C 3.695312 9.78125 4.007812 9.363281 4.34375 8.960938 C 4.675781 8.558594 5.027344 8.175781 5.398438 7.804688 C 5.769531 7.4375 6.160156 7.089844 6.5625 6.761719 C 6.96875 6.429688 7.390625 6.121094 7.828125 5.832031 C 8.261719 5.546875 8.710938 5.277344 9.175781 5.03125 C 9.636719 4.785156 10.113281 4.5625 10.597656 4.363281 C 11.082031 4.167969 11.574219 3.988281 12.078125 3.839844 C 12.582031 3.6875 13.089844 3.5625 13.605469 3.460938 C 14.117188 3.359375 14.636719 3.285156 15.160156 3.234375 C 15.679688 3.183594 16.207031 3.15625 16.730469 3.15625 Z M 16.730469 3.15625 " fill-opacity="1" fill-rule="evenodd"/><path fill="#165ddd" d="M 17.128906 6.859375 C 10.152344 6.859375 4.4375 12.523438 4.4375 19.425781 L 4.4375 32.375 C 4.4375 39.28125 10.152344 44.945312 17.128906 44.945312 L 30.195312 44.945312 C 37.167969 44.945312 42.882812 39.28125 42.882812 32.375 L 42.882812 19.425781 C 42.882812 12.523438 37.167969 6.859375 30.195312 6.859375 Z M 17.128906 6.859375 " fill-opacity="1" fill-rule="evenodd"/><path fill="#ffffff" d="M 36.804688 37.746094 L 10.5 37.746094 C 9.652344 37.746094 8.964844 37.0625 8.964844 36.230469 L 8.964844 19.703125 L 11.410156 19.703125 L 11.410156 35.066406 C 11.410156 35.257812 11.566406 35.410156 11.753906 35.410156 L 35.566406 35.410156 C 35.753906 35.410156 35.910156 35.257812 35.890625 35.066406 L 35.890625 19.703125 L 38.351562 19.703125 L 38.351562 36.230469 C 38.351562 37.0625 37.664062 37.746094 36.804688 37.746094 Z M 23.738281 31.796875 C 23.050781 31.796875 22.394531 31.640625 21.808594 31.367188 L 21.671875 31.621094 C 21.878906 31.847656 22.015625 32.132812 22.015625 32.476562 C 22.015625 33.160156 21.449219 33.71875 20.761719 33.71875 C 20.070312 33.71875 19.519531 33.160156 19.519531 32.476562 C 19.519531 31.796875 20.070312 31.230469 20.761719 31.230469 C 20.863281 31.230469 20.984375 31.25 21.066406 31.265625 L 21.226562 31.027344 C 20.3125 30.394531 19.65625 29.421875 19.417969 28.316406 L 19.125 28.347656 C 19.035156 28.945312 18.523438 29.40625 17.886719 29.40625 C 17.195312 29.40625 16.644531 28.84375 16.644531 28.164062 C 16.644531 27.480469 17.195312 26.917969 17.886719 26.917969 C 18.402344 26.917969 18.847656 27.222656 19.035156 27.667969 L 19.332031 27.632812 C 19.332031 27.566406 19.332031 27.496094 19.332031 27.429688 C 19.332031 26.335938 19.742188 25.347656 20.414062 24.582031 L 20.207031 24.355469 C 20.019531 24.457031 19.8125 24.507812 19.605469 24.507812 C 18.917969 24.507812 18.351562 23.964844 18.351562 23.265625 C 18.351562 22.585938 18.917969 22.039062 19.605469 22.039062 C 20.292969 22.039062 20.863281 22.585938 20.863281 23.265625 C 20.863281 23.488281 20.792969 23.707031 20.691406 23.882812 L 20.898438 24.101562 C 21.585938 23.519531 22.445312 23.148438 23.394531 23.078125 L 23.394531 22.789062 C 22.878906 22.636719 22.480469 22.15625 22.480469 21.59375 C 22.480469 20.910156 23.050781 20.351562 23.738281 20.351562 C 24.425781 20.351562 24.996094 20.910156 24.996094 21.59375 C 24.996094 22.15625 24.597656 22.636719 24.082031 22.789062 L 24.082031 23.078125 C 25.234375 23.164062 26.289062 23.707031 27.011719 24.527344 L 27.25 24.339844 C 27.199219 24.203125 27.164062 24.050781 27.164062 23.882812 C 27.164062 23.199219 27.734375 22.652344 28.421875 22.652344 C 29.109375 22.652344 29.660156 23.199219 29.660156 23.882812 C 29.660156 24.582031 29.109375 25.125 28.421875 25.125 C 28.144531 25.125 27.886719 25.039062 27.660156 24.886719 L 27.4375 25.054688 C 27.886719 25.738281 28.144531 26.554688 28.144531 27.429688 C 28.144531 27.71875 28.109375 27.972656 28.074219 28.246094 L 28.351562 28.316406 C 28.578125 27.957031 28.96875 27.71875 29.417969 27.71875 C 30.109375 27.71875 30.675781 28.28125 30.675781 28.964844 C 30.675781 29.644531 30.109375 30.207031 29.417969 30.207031 C 28.746094 30.207031 28.179688 29.644531 28.179688 28.980469 L 27.886719 28.894531 C 27.507812 29.953125 26.714844 30.820312 25.71875 31.332031 L 25.839844 31.605469 C 25.871094 31.605469 25.925781 31.589844 25.976562 31.589844 C 26.664062 31.589844 27.214844 32.152344 27.214844 32.832031 C 27.214844 33.515625 26.664062 34.078125 25.976562 34.078125 C 25.285156 34.078125 24.71875 33.515625 24.71875 32.832031 C 24.71875 32.445312 24.910156 32.082031 25.199219 31.863281 L 25.082031 31.589844 C 24.667969 31.726562 24.203125 31.796875 23.738281 31.796875 Z M 19.605469 22.71875 C 19.296875 22.71875 19.035156 22.957031 19.035156 23.285156 C 19.035156 23.589844 19.296875 23.828125 19.605469 23.828125 C 19.917969 23.828125 20.175781 23.589844 20.175781 23.285156 C 20.175781 22.957031 19.917969 22.71875 19.605469 22.71875 Z M 18.453125 28.089844 C 18.417969 27.820312 18.175781 27.597656 17.886719 27.597656 C 17.574219 27.597656 17.332031 27.851562 17.332031 28.164062 C 17.332031 28.46875 17.574219 28.722656 17.886719 28.722656 C 18.191406 28.722656 18.453125 28.46875 18.453125 28.164062 C 18.453125 28.128906 18.453125 28.113281 18.453125 28.089844 Z M 20.761719 31.914062 C 20.449219 31.914062 20.207031 32.167969 20.207031 32.476562 C 20.207031 32.78125 20.449219 33.039062 20.761719 33.039062 C 21.066406 33.039062 21.328125 32.78125 21.328125 32.476562 C 21.328125 32.167969 21.066406 31.914062 20.761719 31.914062 Z M 25.976562 32.269531 C 25.667969 32.269531 25.40625 32.527344 25.40625 32.832031 C 25.40625 33.144531 25.667969 33.398438 25.976562 33.398438 C 26.289062 33.398438 26.527344 33.144531 26.527344 32.832031 C 26.527344 32.527344 26.289062 32.269531 25.976562 32.269531 Z M 29.417969 28.398438 C 29.109375 28.398438 28.867188 28.65625 28.867188 28.964844 C 28.867188 29.269531 29.109375 29.527344 29.417969 29.527344 C 29.726562 29.527344 29.988281 29.269531 29.988281 28.964844 C 29.988281 28.65625 29.726562 28.398438 29.417969 28.398438 Z M 28.421875 23.335938 C 28.109375 23.335938 27.851562 23.574219 27.851562 23.882812 C 27.851562 24.1875 28.109375 24.441406 28.421875 24.441406 C 28.730469 24.441406 28.96875 24.1875 28.96875 23.882812 C 28.96875 23.574219 28.730469 23.335938 28.421875 23.335938 Z M 23.738281 21.03125 C 23.429688 21.03125 23.167969 21.289062 23.167969 21.59375 C 23.167969 21.902344 23.429688 22.15625 23.738281 22.15625 C 24.046875 22.15625 24.304688 21.902344 24.304688 21.59375 C 24.304688 21.289062 24.046875 21.03125 23.738281 21.03125 Z M 22.324219 26.488281 L 20.898438 25.054688 C 20.34375 25.703125 20.019531 26.523438 20.019531 27.429688 C 20.019531 27.480469 20.019531 27.515625 20.019531 27.546875 L 22.035156 27.308594 C 22.050781 27 22.15625 26.730469 22.324219 26.488281 Z M 21.378906 24.582031 L 22.808594 26.011719 C 22.980469 25.890625 23.1875 25.824219 23.394531 25.773438 L 23.394531 23.757812 C 22.632812 23.828125 21.949219 24.136719 21.378906 24.582031 Z M 22.121094 27.972656 L 20.105469 28.230469 C 20.3125 29.132812 20.84375 29.902344 21.570312 30.429688 L 22.601562 28.6875 C 22.378906 28.5 22.207031 28.265625 22.121094 27.972656 Z M 23.1875 29.03125 L 22.171875 30.769531 C 22.632812 30.992188 23.167969 31.113281 23.738281 31.113281 C 24.117188 31.113281 24.476562 31.0625 24.824219 30.960938 L 24.046875 29.097656 C 23.941406 29.117188 23.839844 29.132812 23.738281 29.132812 C 23.550781 29.132812 23.355469 29.097656 23.1875 29.03125 Z M 24.683594 28.84375 L 25.457031 30.703125 C 26.269531 30.277344 26.902344 29.578125 27.214844 28.722656 L 25.269531 28.195312 C 25.132812 28.449219 24.925781 28.671875 24.683594 28.84375 Z M 25.441406 27.53125 L 27.40625 28.058594 C 27.4375 27.851562 27.457031 27.648438 27.457031 27.429688 C 27.457031 26.710938 27.25 26.046875 26.886719 25.484375 L 25.269531 26.695312 C 25.390625 26.917969 25.441406 27.171875 25.441406 27.429688 C 25.441406 27.464844 25.441406 27.496094 25.441406 27.53125 Z M 24.859375 26.148438 L 26.457031 24.9375 C 25.855469 24.289062 25.011719 23.847656 24.082031 23.757812 L 24.082031 25.773438 C 24.375 25.839844 24.632812 25.960938 24.859375 26.148438 Z M 23.738281 26.421875 C 23.167969 26.421875 22.722656 26.882812 22.722656 27.429688 C 22.722656 27.988281 23.167969 28.449219 23.738281 28.449219 C 24.304688 28.449219 24.753906 27.988281 24.753906 27.429688 C 24.753906 26.882812 24.304688 26.421875 23.738281 26.421875 Z M 8.964844 19.019531 L 8.964844 15.574219 C 8.964844 14.722656 9.652344 14.039062 10.5 14.039062 L 31.949219 14.039062 L 31.949219 19.019531 Z M 32.636719 14.039062 L 36.804688 14.039062 C 37.664062 14.039062 38.351562 14.722656 38.351562 15.574219 L 38.351562 19.019531 L 32.636719 19.019531 Z M 36.496094 17.210938 L 34.117188 17.210938 C 33.929688 17.210938 33.773438 17.058594 33.773438 16.871094 C 33.773438 16.679688 33.929688 16.527344 34.117188 16.527344 L 36.496094 16.527344 C 36.683594 16.527344 36.839844 16.679688 36.839844 16.871094 C 36.839844 17.058594 36.683594 17.210938 36.496094 17.210938 Z M 29.917969 17.210938 L 22.324219 17.210938 C 22.121094 17.210938 21.984375 17.058594 21.984375 16.871094 C 21.984375 16.679688 22.121094 16.527344 22.324219 16.527344 L 29.917969 16.527344 C 30.109375 16.527344 30.261719 16.679688 30.261719 16.871094 C 30.261719 17.058594 30.109375 17.210938 29.917969 17.210938 Z M 19.296875 18.183594 L 18.523438 18.183594 C 18.023438 18.183594 17.589844 17.757812 17.589844 17.261719 L 17.589844 16.492188 C 17.589844 15.980469 18.023438 15.574219 18.523438 15.574219 L 19.296875 15.574219 C 19.8125 15.574219 20.226562 15.980469 20.226562 16.492188 L 20.226562 17.261719 C 20.226562 17.757812 19.8125 18.183594 19.296875 18.183594 Z M 18.523438 16.257812 C 18.402344 16.257812 18.277344 16.359375 18.277344 16.492188 L 18.277344 17.261719 C 18.277344 17.378906 18.402344 17.503906 18.523438 17.503906 L 19.296875 17.503906 C 19.433594 17.503906 19.535156 17.378906 19.535156 17.261719 L 19.535156 16.492188 C 19.535156 16.359375 19.433594 16.257812 19.296875 16.257812 Z M 15.714844 18.183594 L 14.941406 18.183594 C 14.421875 18.183594 14.007812 17.757812 14.007812 17.261719 L 14.007812 16.492188 C 14.007812 15.980469 14.421875 15.574219 14.941406 15.574219 L 15.714844 15.574219 C 16.234375 15.574219 16.644531 15.980469 16.644531 16.492188 L 16.644531 17.261719 C 16.644531 17.757812 16.234375 18.183594 15.714844 18.183594 Z M 14.941406 16.257812 C 14.804688 16.257812 14.699219 16.359375 14.699219 16.492188 L 14.699219 17.261719 C 14.699219 17.378906 14.804688 17.503906 14.941406 17.503906 L 15.714844 17.503906 C 15.851562 17.503906 15.957031 17.378906 15.957031 17.261719 L 15.957031 16.492188 C 15.957031 16.359375 15.851562 16.257812 15.714844 16.257812 Z M 12.132812 18.183594 L 11.359375 18.183594 C 10.84375 18.183594 10.429688 17.757812 10.429688 17.261719 L 10.429688 16.492188 C 10.429688 15.980469 10.84375 15.574219 11.359375 15.574219 L 12.132812 15.574219 C 12.652344 15.574219 13.0625 15.980469 13.0625 16.492188 L 13.0625 17.261719 C 13.0625 17.757812 12.652344 18.183594 12.132812 18.183594 Z M 11.359375 16.257812 C 11.222656 16.257812 11.117188 16.359375 11.117188 16.492188 L 11.117188 17.261719 C 11.117188 17.378906 11.222656 17.503906 11.359375 17.503906 L 12.132812 17.503906 C 12.273438 17.503906 12.375 17.378906 12.375 17.261719 L 12.375 16.492188 C 12.375 16.359375 12.273438 16.257812 12.132812 16.257812 Z M 35.203125 19.703125 L 12.101562 19.703125 L 12.101562 34.726562 L 35.203125 34.726562 Z M 35.203125 19.703125 " fill-opacity="1" fill-rule="evenodd"/></g></g></g></g></g><g clip-path="url(#a225145944)"><g clip-path="url(#dd0cb0fe8c)"><g clip-path="url(#ebfb14c4d9)"><g clip-path="url(#aee6e33e5e)"><g clip-path="url(#ed377ad326)"><path stroke-linecap="butt" transform="matrix(0.64826, 0, 0, 0.642252, 9.219648, 14.201117)" fill="none" stroke-linejoin="miter" d="M -0.00138583 4.996546 L -0.00138583 31.392938 C -0.00138583 34.15422 2.240193 36.392439 4.999986 36.392439 L 39.76253 36.392439 C 42.522323 36.392439 44.763901 34.15422 44.763901 31.392938 L 44.763901 4.996546 C 44.763901 2.235264 42.522323 0.003127 39.76253 0.003127 L 4.999986 0.003127 C 2.240193 0.003127 -0.00138583 2.235264 -0.00138583 4.996546 Z M -0.00138583 4.996546 " stroke="#165ddd" stroke-width="2" stroke-opacity="1" stroke-miterlimit="4"/></g></g></g></g></g><g clip-path="url(#c5086aa44f)"><g clip-path="url(#af3759aa58)"><g clip-path="url(#e83045b633)"><path stroke-linecap="butt" transform="matrix(0.734694, 0, 0, 0.734694, 2.026967, 0.953485)" fill="none" stroke-linejoin="miter" d="M 0.000513198 4.99734 L 0.000513198 56.38992 C 0.000513198 59.154677 2.238903 61.393067 4.998343 61.393067 L 54.811821 61.393067 C 57.576578 61.393067 59.814968 59.154677 59.814968 56.38992 L 59.814968 4.99734 C 59.814968 2.2379 57.576578 -0.000489756 54.811821 -0.000489756 L 4.998343 -0.000489756 C 2.238903 -0.000489756 0.000513198 2.2379 0.000513198 4.99734 Z M 0.000513198 4.99734 " stroke="#165ddd" stroke-width="2" stroke-opacity="1" stroke-miterlimit="4"/></g></g></g></svg>